<svg width="162" height="167" viewBox="0 0 162 167" fill="none" xmlns="http://www.w3.org/2000/svg">
<path d="M141.009 22.4C127.235 7.74402 107.909 0 85.116 0C68.039 0 52.929 4.58901 40.581 13.364C32.2751 17.5279 24.8946 23.3245 18.881 30.407C6.705 44.66 0 63.816 0 84.345C0 133.336 30.813 166.252 76.674 166.252C94.182 166.252 109.527 161.636 121.92 152.809C130.339 148.605 137.79 142.692 143.796 135.447C155.518 121.376 161.974 102.361 161.974 81.904C161.976 57.57 154.726 36.994 141.009 22.4ZM85.677 148.817C45.863 148.817 21.005 120.591 21.005 78.91C21.005 57.51 29.541 36.425 46.638 23.81C55.8473 19.465 65.9282 17.2834 76.11 17.432C115.362 17.432 140.97 43.785 140.97 87.339C140.97 108.352 133.037 129.654 115.811 142.41C107.428 146.459 97.427 148.817 85.677 148.817Z" fill="black"/>
<path d="M85.677 42.462C77.821 42.462 71.367 44.985 66.477 49.544C53.64 54.049 46.577 67.511 46.577 86.21C46.577 107.147 57.977 123.594 75.921 123.594C83.967 123.594 90.286 121.109 94.969 116.622C108.069 112.193 114.269 98.499 114.269 79.47C114.276 54.426 102.312 42.462 85.677 42.462ZM84.929 106.162C73.011 106.162 67.583 93.004 67.583 80.778C67.583 72.033 69.483 64.734 72.939 60.225V60.22C74.17 59.9995 75.4184 59.8903 76.669 59.894C87.683 59.894 93.269 68.308 93.269 84.901C93.269 95.707 91.204 102.137 88.43 105.964C87.2694 106.116 86.0993 106.182 84.929 106.162Z" fill="black"/>
<path d="M149.974 81.982C149.974 115.064 130.347 148.895 85.674 148.895C45.86 148.895 21.002 120.669 21.002 78.988C21.002 45.158 42.311 12.075 85.113 12.075C124.366 12.075 149.974 38.429 149.974 81.982ZM85.674 42.54C66.422 42.54 55.58 57.68 55.58 80.856C55.58 101.794 66.98 118.24 84.926 118.24C104.926 118.24 114.272 102.914 114.272 79.548C114.273 54.504 102.31 42.54 85.675 42.54H85.674Z" fill="#FCD015"/>
<path d="M85.266 148.895C76.0996 149 67.0024 147.298 58.494 143.886C50.7706 140.725 43.8364 135.906 38.182 129.768C32.4289 123.434 28.0264 115.994 25.243 107.903C22.1304 98.8111 20.5591 89.2629 20.594 79.653H55.182C55.176 80.032 55.172 80.437 55.172 80.853C55.1405 85.8187 55.8352 90.7623 57.234 95.527C58.4727 99.8019 60.4646 103.821 63.116 107.396C65.5664 110.701 68.7257 113.415 72.362 115.339C76.1185 117.277 80.2901 118.273 84.517 118.239C89.0054 118.325 93.454 117.383 97.523 115.487C101.176 113.693 104.32 111.011 106.668 107.687C109.215 104.003 111.049 99.8747 112.074 95.515C113.316 90.3206 113.917 84.9936 113.864 79.653H149.541C149.558 80.44 149.566 81.224 149.566 81.982C149.567 86.1239 149.256 90.26 148.635 94.355C148.017 98.4376 147.069 102.463 145.801 106.393C143.33 114.221 139.381 121.503 134.168 127.844C128.743 134.38 121.9 139.594 114.159 143.092C105.054 147.071 95.2013 149.05 85.266 148.895Z" fill="#FBB500"/>
<path d="M85.268 151.895C65.013 151.895 47.902 144.875 35.785 131.595C23.885 118.551 17.596 100.361 17.596 78.989C17.596 45.317 38.596 9.07599 84.707 9.07599C104.953 9.07599 122.012 15.842 134.042 28.642C146.161 41.542 152.566 59.982 152.566 81.984C152.566 100.34 146.851 117.309 136.474 129.766C124.413 144.242 106.706 151.895 85.268 151.895ZM84.707 15.075C42.719 15.075 23.596 48.206 23.596 78.988C23.596 119.632 47.803 145.895 85.268 145.895C127.612 145.895 146.568 113.795 146.568 81.983C146.566 40.713 122.863 15.075 84.707 15.075ZM84.52 121.24C65.475 121.24 52.174 104.633 52.174 80.856C52.174 55.371 64.854 39.54 85.268 39.54C105.054 39.54 116.868 54.496 116.868 79.548C116.866 106.044 105.076 121.24 84.52 121.24ZM85.268 45.54C68.302 45.54 58.174 58.74 58.174 80.856C58.174 101.101 69.008 115.24 84.52 115.24C96.539 115.24 110.866 109.048 110.866 79.548C110.866 57.935 101.536 45.54 85.268 45.54Z" fill="#FCD015"/>
</svg>
